<svg xmlns="http://www.w3.org/2000/svg" viewBox="0 0 303.74 220.04"><defs><style>.cls-1{fill:#fff;}</style></defs><g id="Слой_2" data-name="Слой 2"><g id="Слой_1-2" data-name="Слой 1"><path class="cls-1" d="M2,27.4,4.27,194.16,11,212.88s81.12-22,142.77,0c21.65-5,88.65-17,138.65,5,6-10,6.38-23.72,6.38-23.72L280.4,12.88s-18,17-70-6c-41-18-66.38,18.56-66.38,18.56s-22.3-18-40-18.78S34.52,28.92,2,27.4Z"/><path d="M143.21,22.66c12.15-18.94,30.53-26.32,55-21,12.9,2.83,25.5,7,38.29,10.43,11.23,3,22.58,4.47,34,1.12,2.51-.74,4.95-1.72,7.38-2.7,4.43-1.78,4.91-1.58,5.44,3,1.37,12,2.68,24.09,4,36.13q5.46,48.61,10.95,97.21c1.81,16,3.83,32,5.35,48,.78,8.25-3.4,15.45-6.5,22.74-1.17,2.77-3.84,2.65-6.5,1.79a244.89,244.89,0,0,0-64-11.38c-22.49-1.06-44.75.28-66.68,5.85a18.36,18.36,0,0,1-9,0c-45.2-11.48-90.32-10.51-135.4.6-5.42,1.33-5.64.9-8.68-3.67-5-7.52-5.83-15.38-5.69-24.37.61-40.61.35-81.23.17-121.84C1.29,52.34.48,40,.05,27.62c-.07-2-.47-4.38,2.82-3.88,19.83,3,38.08-3,56.22-9.71C70.48,9.83,82,5.9,94.13,4.75c14-1.34,27.54.41,39.34,8.86C137.05,16.18,140,19.64,143.21,22.66Zm-67.78,161C74,127.25,72.62,71.39,71.21,15,49.23,22,28.51,31.6,6,28.91V193A258.76,258.76,0,0,1,75.43,183.7ZM278.61,15.52c-16.76,7-33,4.14-49.16-.36-9.86-2.75-19.61-5.9-29.56-8.23-11.45-2.67-23-3.2-34.26,1.39-13.4,5.48-20.17,16.22-19.11,30.57,1.19,16.18,2.56,32.36,3.87,48.54.33,4.11.71,8.22,1.12,12.85A55.34,55.34,0,0,1,177.2,88c14.8-3,29.31-.72,43.8,2.35s29,6.2,43.64,8.69a53.78,53.78,0,0,0,23.22-1.57C284.78,70.13,281.72,43,278.61,15.52ZM155.71,196.33c4.93-1.7,8.39-2.73,11.7-4.12.86-.37,1.54-1.8,1.79-2.86,1.38-5.82,2.72-11.65,3.76-17.53a5.58,5.58,0,0,0-1.21-4.4,17.8,17.8,0,0,1-6.15-15.77,48.22,48.22,0,0,1,2.13-10.23c.91-2.7.46-4.92-.28-7.53a93.84,93.84,0,0,1-3.3-15.68c-.56-5.31,2.08-7.49,7-5.79a91.13,91.13,0,0,1,14.44,6.84c1.84,1,3.2,1.66,5.42,1.23,3.63-.71,7.42-.58,11.11-1.08a8.92,8.92,0,0,0,4-1.76c3.51-2.74,6.61-6.1,10.37-8.42,4.45-2.76,8.93-1,10.3,4.08a38.54,38.54,0,0,1,1.53,13.62,19.35,19.35,0,0,0,1.88,11.36,32.22,32.22,0,0,1,1.76,4c1.7,4.92,3.86,10.52,1.28,15.14C230,163.35,231.76,168,234.48,173a29.1,29.1,0,0,1,1.66,4.18c2,5.55,2,5.64,8.05,5.62,1.23,0,3-.61,3.56-1.52,1-1.63,2.16-3.28.54-5.77-1.51-2.31-2.93-5.9-2.19-8.23,1.9-6,1.8-11.83.77-17.81a8.85,8.85,0,0,1-.08-1.78c.29-3.33,1.73-4.27,4.87-3.12a8.74,8.74,0,0,1,3,1.43,15.15,15.15,0,0,0,13.14,4.12,9.35,9.35,0,0,0,3.85-1.29c2.84-2,5.55-5.27,9.23-3.55,4,1.89,2.58,6.27,2.71,9.78,0,.13-.05.27,0,.4.34,2.06.93,4.07.69,6.14-.46,4,1.14,8.87-.17,12.68-.68,3-1.4,5-.19,7.71.75,1.68.89,3.64,1.53,5.39a3.61,3.61,0,0,0,1.73,2.1c3.62,1.17,7.31,2.11,11.45,3.27-2.57-22.68-5.07-44.8-7.5-66.23-4.1,0-7.59-.19-11.05.07a19.56,19.56,0,0,0-6.57,1.61c-5.1,2.36-10,5.12-15.08,7.51a3.74,3.74,0,0,1-3.27-.49c-.54-.45-.5-2.08-.18-3,.92-2.64,2.12-5.19,3.27-7.94-10.34-2.26-18-7.76-19.15-18-.77-6.66-3.6-8.6-9.19-9.12a15.1,15.1,0,0,1-1.82-.45c-12.29-2.92-24.58-5.82-37.34-5.53-13.22.31-25.45,3.44-35.66,12.47a7.86,7.86,0,0,0-3,7.11c1.32,19.95,2.55,39.91,3.51,59.88C156,178.82,155.71,187.05,155.71,196.33ZM132.33,19.17c-12.23-12-40.68-11.76-56.54-5.11Q77.91,98.7,80,183.77l8.48.42c.57-6.73,1.88-13.1,1.48-19.36-.92-14.68-2.23-29.36-4.17-43.93-2.75-20.52-4.69-40.79.42-61.35C92.35,35,110.19,18,132.33,19.17ZM99.06,184l51.24,11.26c0-10,.09-20.71-.12-31.42,0-1.18-1.54-2.6-2.7-3.46-7.28-5.43-14.93-10.41-21.88-16.22-3.08-2.58-5-2.54-7.88-.44C103.82,153.87,101.66,169.25,99.06,184Zm199.72,14.18c-47.89-15.06-94.95-14.07-141.66,3.08.35,2.57.65,4.75,1,7.28,45.55-9.46,90.47-7.53,135,6.21ZM118.47,81.64c-2.07,5.72-4.23,10.52-5.54,15.53-2.35,9-1.68,17.42,6.31,23.74,8.52,6.73,18.79,6.32,28.75,6-.26-6.55.37-6.18-4.83-8.15a6.82,6.82,0,0,1-3.3-2.27,4.74,4.74,0,0,1-.48-2.31,1.46,1.46,0,0,1,1.54-1.5,8.36,8.36,0,0,1,2,.33,34,34,0,0,1,4.45,2.24c-.75-10.91-1.42-20.85-2.12-30.79a2.36,2.36,0,0,0-.66-1.36c-3-2.82-6.13-5.6-9.43-8.59C132.47,79.63,129.8,84.83,127,90c-1.62,3-3.1,3-4.73,0C121,87.55,120,85,118.47,81.64ZM290.53,121c-.78-6.74-1.44-12.51-2.16-18.76-15.26,3.4-30,1.47-45.55-2,.76,3.25,1,6,2,8.4,3.15,7.13,8.89,10.51,16.64,10.4,3.23,0,4,1.29,2.76,4.16-.68,1.53-1.26,3.11-2.3,5.71,3.35-1.89,5.77-3.09,8-4.56,3.36-2.19,6.41-2.51,10.92-2.67C284.31,121.48,287,121.32,290.53,121ZM151.87,208.16q-70.07-23.24-141-2.09c1.1,4,1.11,4.08,4.84,3.16a283.47,283.47,0,0,1,104.11-6.3C130.53,204.3,141.18,206.4,151.87,208.16Zm0-4.51c-1.3-.86-2.48-2-3.9-2.52a230.91,230.91,0,0,0-109.37-9.7c-10.81,1.6-21.45,4.31-32.82,6.65l2.94,5.13C56.56,188.72,103.89,188.87,151.9,203.65Zm-3.08-47.3,1.84-1.2c-.9-2.78-1.06-6.23-2.84-8.2-4-4.4-8.73-8.08-13.23-12-.65-.57-1.81-1.27-2.43-1.05-2.37.83-4.6,2-6.89,3.06-.19.87-.39,1.73-.59,2.6ZM139.4,132l-.56.74,9.16,9,1.2-.93-.82-8.8Z"/><path d="M41.9,82.12c3.86-.28,7.28-.17,10.89-.13a71,71,0,0,1,9.55.35c5.16,1.12,7.07,3.71,7.32,9,.19,4,.17,8,.08,12-.12,5.65-2.71,8.47-8.43,8.94q-12.87,1-25.77,1.73a5.44,5.44,0,0,0-5.09,3,59,59,0,0,1-4.71,7.2,8.56,8.56,0,0,1-2.18,1.8,1.37,1.37,0,0,1-1.89-.35,9.81,9.81,0,0,1-1.37-2.35,23.27,23.27,0,0,1-1.21-5.47c-.26-2.66-1.3-4.26-3.74-5.88A6.45,6.45,0,0,1,13.1,108,122.09,122.09,0,0,1,11,93.17c-.23-4.77,3.2-8.37,9-9.32C27.22,82.69,34.75,82.63,41.9,82.12ZM23.81,116.81a.43.43,0,0,0,.81.08c3.1-6.83,9.13-7.54,15.74-7.68s13.44-1,20.17-1.34c3.42-.19,5-1.68,4.76-5.18-.17-2.74,0-5.49,0-8.24,0-6.5-.87-8.1-7.34-8.19a290.92,290.92,0,0,0-31,1.07c-11,1-11.85,2.39-11.1,13.54.18,2.59.08,4.57,2.58,7.37C22,110.72,23,113.19,23.81,116.81Z"/><path d="M46.37,128.92c7.87.52,15.51,2.26,20.08,10.16,2.91,5,2.47,9.63-.9,14.31a6,6,0,0,0-.77,4.27c.5,2.55,1.76,5,2.31,7.49a5.32,5.32,0,0,1-.72,4c-.44.54-2.85.4-3.54-.28-5.61-5.54-11.42-5-18.47-2.47-9.52,3.41-17.85-.26-21.75-8-4-8-1.61-17.73,5.93-23.8C33.64,130.48,39.59,129,46.37,128.92Zm14.15,33.5a.44.44,0,0,0,.48,0c.26-.18.15-.46-.06-1.07-.51-1.75-1.35-3.49-1.45-5.26a6.7,6.7,0,0,1,1.19-4.49c3.88-4.21,3.9-9.09-.32-13.17-8.33-8.06-26.41-6-32.62,3.79-2.94,4.64-3.46,9.6-.73,14.53s7.11,6.45,12.34,6A26.82,26.82,0,0,0,47,161.08C51.64,159.16,56.17,155.88,60.52,162.42Z"/><path d="M17.58,55.28c0-8.35,6.16-16.36,15.1-19.43a30.54,30.54,0,0,1,21.61.58c5.26,2.07,9.16,5.82,10.43,11.41.57,2.5.73,6.21-.68,7.83C60,60.34,61.9,64.54,63.61,69a13.86,13.86,0,0,1,.82,2.48c.45,2.57-1.42,4.1-3.82,3.2a1.88,1.88,0,0,1-.65-.36c-5.86-5.93-12.07-4.83-19.47-2.52C28,75.73,17.53,67.55,17.58,55.28ZM57.34,67.52c.07.09.49,0,.56-.2a1.54,1.54,0,0,0,0-.84,25.66,25.66,0,0,1-1.51-5.3A5.93,5.93,0,0,1,57.44,57c4.24-4.49,4-9.8-.83-13.93-8.42-7.13-25-5.28-31.41,3.64-3.37,4.71-4.14,9.92-1.36,15.17s7.51,6.71,13,6.09a24.18,24.18,0,0,0,7.56-1.87C48.81,64,53,61.9,56.89,67,57.07,67.2,57.11,67.25,57.34,67.52Z"/><path d="M223.06,36c9.54.68,20,1.41,30.45,2.17,2.49.18,5.12,0,7.43.78,3.24,1.07,6.73,2.27,9.26,4.42,7.38,6.28,8.3,20.9,2.22,28.51-3.39,4.25-8,5.91-13.24,5.78-4.49-.1-9-.64-13.45-1-2.72-.2-5.44-.38-8.74-.61.78,3.19,1.53,5.89,2,8.64a3,3,0,0,1-.19,1.42,1.28,1.28,0,0,1-1.69.79,3,3,0,0,1-1.11-.69c-2.58-2.88-4.88-6-7.62-8.76a9.11,9.11,0,0,0-5-2.51c-6.32-.74-12.7-1-19-1.59-7.14-.65-13-3.45-16.36-10.23-.44-.88-1.81-1.48-2.88-1.84-2.48-.84-5.36-.93-7.48-2.26-4.12-2.59-7.94-1.9-12-.35a49.41,49.41,0,0,1-6.81,2.06,2.88,2.88,0,0,1-2.54-.82,2.79,2.79,0,0,1,.34-2.34c1.81-2.54,4-4.85,5.64-7.47a4.84,4.84,0,0,0,.38-3.88c-4.4-10.35-2.14-20.1,6.52-27.3,14-11.62,37.25-9.64,47.81,4.43C219.56,26.79,220.84,31.25,223.06,36Zm-31.95,26.1a12.71,12.71,0,0,0,9.66,7.39,137.32,137.32,0,0,0,17.86,1.81c6.19.17,11.59,1.27,14.77,7.27.07.13.51.9.85.71.17-.14,0-1.28-.08-1.62A4,4,0,0,1,238.7,73c6.51.52,13,1.08,19.53,1.44,4.39.24,8.62-.62,11.51-4.25,4.58-5.74,4.47-12.4,2.35-18.87-1.95-6-6.63-9.25-13-9.75-9.34-.73-18.69-1.34-28-2L222,38.93C217.67,53.72,209.93,59.51,191.11,62.05ZM162.8,54.9h0a3.4,3.4,0,0,0,2.2.16,7.44,7.44,0,0,0,1.31-.43c4-1.8,7.43-1.39,11.59.48,11.72,5.25,23.21,4.23,33.33-4.12,9.28-7.66,9.42-19.9.75-28.18-10.67-10.19-30.21-10.51-41.22-.68-6,5.38-8.83,13.35-5.69,19.86C167.53,47.1,168.31,51.12,162.8,54.9Z"/><path d="M157.37,203.52c25.24-6,54.72-10.3,80.68-9.18a172.38,172.38,0,0,1,51,9.59c1.88.67,4.86,2.36,6.67,3.24,1,.57-.36,2.17-.44,2.65a38.78,38.78,0,0,0-3.89-1.49c-7.82-2.11-15.51-4.77-23.42-6.41-8.76-1.82-17.69-3.57-26.59-3.85a317.9,317.9,0,0,0-40,1c-13.24,1.24-30.81,4.65-44,6.75"/><path d="M128,99.55a5,5,0,0,1-4.1-.35,34.56,34.56,0,0,1-4.65-2.7,2.6,2.6,0,0,1-1-2.42,1.65,1.65,0,0,1,1.36-1.45,5.12,5.12,0,0,1,2.46.5c5.09,3,5.15,3.06,8.9-1.69a3.38,3.38,0,0,1,1.84-1.29,2.07,2.07,0,0,1,1.74.37c.28.29,1,.8.43,2.84C134.25,96.23,131.44,98.3,128,99.55Z"/><rect x="29.96" y="55.89" width="10.04" height="2.67" rx="1.34" transform="translate(32.36 -9.8) rotate(29.2)"/><rect x="28.14" y="50.28" width="11.3" height="2.67" rx="1.34" transform="translate(95.34 47.3) rotate(119.2)"/><rect x="36.79" y="57.47" width="3.76" height="2.67" rx="1.34" transform="translate(-18.22 17.37) rotate(-20.6)"/><rect x="42.66" y="50.25" width="10.04" height="2.67" rx="1.34" transform="translate(107.6 88.24) rotate(164.2)"/><rect x="40.13" y="52.99" width="6.51" height="2.67" rx="1.34" transform="translate(110.79 37.25) rotate(114.4)"/><rect x="48.13" y="142.98" width="10.04" height="2.67" rx="1.34" transform="translate(77.15 -7.59) rotate(29.2)"/><rect x="45" y="143.31" width="7.51" height="2.67" rx="1.34" transform="translate(198.8 172.65) rotate(119.2)"/><rect x="49.46" y="148.15" width="10.13" height="2.67" rx="1.34" transform="translate(211.62 174.8) rotate(119.2)"/><rect x="41.45" y="146.08" width="7.51" height="2.67" rx="1.34" transform="translate(128.85 276.95) rotate(164.2)"/><rect x="30.62" y="150.11" width="7.23" height="2.67" rx="1.34" transform="translate(78.22 2.54) rotate(29.2)"/><path d="M35.7,155.65,34.94,153a1.34,1.34,0,0,1,.93-1.65h0a1.33,1.33,0,0,1,1.65.92l.75,2.69a1.34,1.34,0,0,1-.92,1.65h0A1.34,1.34,0,0,1,35.7,155.65Z"/><path d="M37.44,143.19l-2.75,4.93a1.34,1.34,0,0,1-1.82.52h0a1.34,1.34,0,0,1-.52-1.82l2.75-4.94a1.34,1.34,0,0,1,1.82-.51h0A1.34,1.34,0,0,1,37.44,143.19Z"/><path d="M39.88,147l-2.75,4.93a1.33,1.33,0,0,1-1.82.52h0a1.34,1.34,0,0,1-.51-1.82l2.75-4.93a1.33,1.33,0,0,1,1.82-.52h0A1.34,1.34,0,0,1,39.88,147Z"/><rect x="173.59" y="38.01" width="10.04" height="2.67" rx="1.34" transform="translate(41.89 -82.13) rotate(29.2)"/><rect x="177.91" y="36.19" width="10.04" height="2.67" rx="1.34" transform="translate(272.21 -126.49) rotate(106.97)"/><rect x="188.06" y="31.68" width="5.7" height="2.67" rx="1.34" transform="translate(376.37 89.04) rotate(-173)"/><rect x="184.73" y="35.26" width="10.04" height="2.67" rx="1.34" transform="translate(170.6 228.9) rotate(-95.23)"/><rect x="196.23" y="36.18" width="10.04" height="2.67" rx="1.34" transform="translate(52.13 177.77) rotate(-53.81)"/><rect x="196.21" y="31.94" width="8.72" height="2.67" rx="1.34" transform="translate(30.81 -78.6) rotate(23.97)"/><path d="M236.32,48.8l1.58,3.86a1.34,1.34,0,0,1-.7,1.76h0a1.34,1.34,0,0,1-1.76-.7l-1.58-3.86a1.34,1.34,0,0,1,.7-1.76h0A1.34,1.34,0,0,1,236.32,48.8Z"/><rect x="227.37" y="50.1" width="9.71" height="2.67" rx="1.34" transform="translate(13.49 144.87) rotate(-35.62)"/><path d="M227.55,47l2.6,5.91a1.44,1.44,0,0,1-.63,1.92h0A1.43,1.43,0,0,1,227.7,54l-2.6-5.91a1.43,1.43,0,0,1,.63-1.92h0A1.43,1.43,0,0,1,227.55,47Z"/><path d="M222.72,57.79l-1.28-3.32a1.25,1.25,0,0,1,.81-1.56h0a1.25,1.25,0,0,1,1.67.54l1.27,3.33a1.25,1.25,0,0,1-.8,1.56h0A1.24,1.24,0,0,1,222.72,57.79Z"/><rect x="221.93" y="53.93" width="9.71" height="2.67" rx="1.34" transform="translate(444.92 -27.82) rotate(145.46)"/><path d="M250.68,62.31l1.58,3.86a1.34,1.34,0,0,1-.7,1.76h0a1.34,1.34,0,0,1-1.76-.7l-1.58-3.86a1.34,1.34,0,0,1,.7-1.76h0A1.34,1.34,0,0,1,250.68,62.31Z"/><path d="M246.92,52l1.58,3.87a1.33,1.33,0,0,1-.7,1.75h0a1.32,1.32,0,0,1-1.75-.69L244.47,53a1.33,1.33,0,0,1,.69-1.75h0A1.34,1.34,0,0,1,246.92,52Z"/><path d="M253.05,51.39l1.58,3.86a1.34,1.34,0,0,1-.69,1.76h0a1.34,1.34,0,0,1-1.76-.7l-1.58-3.86a1.34,1.34,0,0,1,.69-1.76h0A1.34,1.34,0,0,1,253.05,51.39Z"/><path d="M261.18,52.42l-1.61,3.85a1.35,1.35,0,0,1-1.74.75h0a1.34,1.34,0,0,1-.75-1.74l1.61-3.85a1.35,1.35,0,0,1,1.74-.75h0A1.34,1.34,0,0,1,261.18,52.42Z"/><path d="M258.18,57.82l-7,4.88c-1.22.87-2.55,1.09-3,.49h0c-.43-.6.21-1.79,1.43-2.67l6.94-4.87c1.22-.87,2.56-1.1,3-.5h0C260,55.75,259.4,57,258.18,57.82Z"/><path d="M235.85,58.81l2.6,5.91a1.42,1.42,0,0,1-.63,1.91h0a1.41,1.41,0,0,1-1.82-.85l-2.6-5.91A1.42,1.42,0,0,1,234,58h0A1.42,1.42,0,0,1,235.85,58.81Z"/><path d="M231,66l1.6,3.6c.2.47-.19,1.09-.86,1.38h0c-.68.29-1.4.15-1.6-.31l-1.6-3.6c-.2-.47.19-1.09.86-1.38h0C230.07,65.36,230.78,65.5,231,66Z"/><rect x="226.45" y="60.05" width="10.04" height="2.67" rx="1.34" transform="translate(7.56 146.3) rotate(-35.62)"/><rect x="22.91" y="100.77" width="6.44" height="2.67" rx="1.34" transform="matrix(1, 0.02, -0.02, 1, 2.03, -0.5)"/><rect x="22.26" y="97.09" width="10.04" height="2.67" rx="1.34" transform="translate(118.63 52.73) rotate(78.91)"/><rect x="49.96" y="96.79" width="14.12" height="2.67" rx="1.34" transform="translate(-53.48 124.02) rotate(-73.03)"/><rect x="47.56" y="93.94" width="11.16" height="2.67" rx="1.34" transform="translate(53.05 204.36) rotate(-150.8)"/><rect x="36.34" y="96.05" width="10.04" height="2.67" rx="1.34" transform="translate(-63.86 108.52) rotate(-73.03)"/><rect x="45.23" y="96.44" width="10.04" height="2.67" rx="1.34" transform="translate(-57.94 117.3) rotate(-73.03)"/><rect x="26.66" y="96.79" width="10.04" height="2.67" rx="1.34" transform="translate(121.88 48.17) rotate(78.91)"/><rect x="25.23" y="93.22" width="10.04" height="2.67" rx="1.34" transform="matrix(-1, 0.07, -0.07, -1, 66.77, 186.87)"/></g></g></svg>